<?xml version="1.0" encoding="UTF-8"?>
<svg id="Layer_1" data-name="Layer 1" xmlns="http://www.w3.org/2000/svg" viewBox="0 0 841.89 332.01">
  <defs>
    <style>
      .cls-1 {
        fill: #1d1d1b;
      }
    </style>
  </defs>
  <path class="cls-1" d="M256.14,118.91l24.81-14.18s-36.24-68.54-124.47-66.17S34.78,116.15,34.78,116.15c0,0-32.3,59.87,0,124.86,32.3,64.99,97.68,74.44,97.68,74.44,0,0,72.48,17.33,126.44-37.03,35.45-38.21,33.48-75.63,33.48-75.63h47.27l20.88-108.32,51.85,121.32,50.17-120.53,22.85,107.39h26l-41.75-184.98-57.11,137.07-59.48-137.07-34.66,161.49h-144.95v24.03l88.62-.39s.39,35.06-20.88,56.33c-21.27,21.27-46.87,28.75-46.87,28.75,0,0-28.36,10.63-63.42,1.18s-57.9-40.18-57.9-40.18c0,0-25.94-28.08-24.48-76.42,1.65-54.41,58.49-120.58,135.16-105.95,51.6,13,72.48,52.39,72.48,52.39Z"/>
  <g>
    <path class="cls-1" d="M307.11,246.8c-.06,3.49.86,6.19,2.74,8.1,1.88,1.91,4.54,2.87,7.97,2.87,1.97,0,3.66-.35,5.06-1.05,1.41-.7,2.59-1.9,3.54-3.59h12.57c-.67,2.36-1.7,4.43-3.08,6.2-1.38,1.77-3.01,3.25-4.89,4.43-1.88,1.18-3.95,2.05-6.2,2.62s-4.56.84-6.92.84c-3.43,0-6.62-.51-9.58-1.52s-5.48-2.49-7.59-4.43c-2.11-1.94-3.77-4.3-4.98-7.09-1.21-2.78-1.81-5.95-1.81-9.49s.56-6.54,1.69-9.32c1.12-2.78,2.7-5.16,4.73-7.13,2.02-1.97,4.46-3.49,7.3-4.56s5.95-1.6,9.32-1.6c3.54,0,6.71.55,9.49,1.65,2.78,1.1,5.15,2.66,7.09,4.68,1.94,2.02,3.43,4.47,4.47,7.34,1.04,2.87,1.62,6.05,1.73,9.53v1.52h-32.66ZM317.66,230.77c-2.64,0-4.92.73-6.83,2.19-1.91,1.46-3.09,3.46-3.54,5.99h20.17c-.45-2.53-1.56-4.53-3.33-5.99-1.77-1.46-3.92-2.19-6.46-2.19Z"/>
    <path class="cls-1" d="M393.77,244.69c0,3.49-.67,6.63-2.03,9.41-1.35,2.79-3.16,5.15-5.44,7.09-2.28,1.94-4.92,3.43-7.93,4.47-3.01,1.04-6.2,1.56-9.58,1.56s-6.5-.51-9.53-1.52c-3.04-1.01-5.71-2.49-8.02-4.43-2.31-1.94-4.14-4.3-5.48-7.09-1.35-2.78-2.03-5.92-2.03-9.41s.68-6.71,2.03-9.49c1.35-2.79,3.16-5.16,5.44-7.13,2.28-1.97,4.92-3.47,7.93-4.51,3.01-1.04,6.2-1.56,9.58-1.56s6.57.51,9.58,1.52c3.01,1.01,5.67,2.49,7.97,4.43,2.31,1.94,4.13,4.32,5.48,7.13,1.35,2.81,2.03,5.99,2.03,9.53ZM379.85,242.24c-.51-2.53-1.73-4.63-3.67-6.29-1.94-1.66-4.4-2.49-7.38-2.49-1.74,0-3.31.3-4.68.89-1.38.59-2.55,1.41-3.5,2.45-.96,1.04-1.7,2.24-2.24,3.59-.53,1.35-.8,2.79-.8,4.3s.25,2.95.76,4.3,1.25,2.53,2.24,3.54,2.16,1.81,3.54,2.4c1.38.59,2.91.89,4.6.89,2.98,0,5.43-.79,7.34-2.36,1.91-1.57,3.15-3.6,3.71-6.08.17-.79.25-1.65.25-2.57s-.06-1.79-.17-2.57Z"/>
    <path class="cls-1" d="M427.23,234.44c-1.04-.2-2.07-.24-3.08-.13-1.8.06-3.33.48-4.6,1.27-1.26.79-2.31,1.8-3.12,3.04-.82,1.24-1.41,2.65-1.77,4.22-.37,1.58-.55,3.24-.55,4.98v18.06h-13.16v-42.44h13.16v6.5h.08c1.41-2.42,3.18-4.22,5.32-5.4,2.14-1.18,4.61-1.77,7.43-1.77h3.46v12.91c-1.07-.62-2.12-1.02-3.16-1.22Z"/>
    <path class="cls-1" d="M480.05,272.75c-.87,3.07-2.24,5.67-4.09,7.8-2.08,2.48-4.68,4.27-7.81,5.4-3.12,1.13-6.71,1.69-10.76,1.69-2.53,0-5.12-.34-7.76-1.01-2.65-.67-5.09-1.7-7.34-3.08-2.25-1.38-4.15-3.11-5.7-5.19s-2.49-4.56-2.83-7.43h14.6c.17,1.01.55,1.91,1.14,2.7s1.28,1.41,2.07,1.86c1.69,1.07,3.54,1.6,5.57,1.6,3.99,0,6.92-1.26,8.78-3.8.96-1.35,1.59-2.9,1.9-4.64.31-1.74.46-3.6.46-5.57v-1.05c0-.08-.01-.22-.04-.42s-.04-.55-.04-1.05c-1.97,2.02-4.06,3.57-6.29,4.64s-4.8,1.6-7.72,1.6c-3.09,0-5.92-.56-8.48-1.69-2.56-1.13-4.77-2.67-6.62-4.64-1.86-1.97-3.29-4.29-4.3-6.96-1.01-2.67-1.52-5.53-1.52-8.57s.52-6.02,1.56-8.78c1.04-2.76,2.52-5.17,4.43-7.26,1.91-2.08,4.21-3.74,6.88-4.98s5.61-1.86,8.82-1.86c2.7,0,5.16.51,7.38,1.52,2.22,1.01,4.15,2.65,5.78,4.89h.08v-5.06h13.16v38.64c0,4.05-.44,7.61-1.31,10.67ZM457.73,233.22c-1.69,0-3.21.31-4.56.93-1.35.62-2.5,1.44-3.46,2.45-.96,1.01-1.69,2.19-2.19,3.54s-.76,2.76-.76,4.22.25,2.97.76,4.35,1.22,2.57,2.15,3.59c.93,1.01,2.07,1.81,3.42,2.4,1.35.59,2.9.89,4.64.89s3.29-.3,4.64-.89c1.35-.59,2.49-1.39,3.42-2.4s1.65-2.19,2.15-3.54.76-2.81.76-4.39-.25-2.95-.76-4.3-1.24-2.53-2.19-3.54c-.96-1.01-2.11-1.81-3.46-2.4-1.35-.59-2.9-.89-4.64-.89h.08Z"/>
    <path class="cls-1" d="M501.35,246.8c-.06,3.49.86,6.19,2.74,8.1,1.88,1.91,4.54,2.87,7.97,2.87,1.97,0,3.66-.35,5.06-1.05,1.41-.7,2.59-1.9,3.54-3.59h12.57c-.67,2.36-1.7,4.43-3.08,6.2-1.38,1.77-3.01,3.25-4.89,4.43-1.88,1.18-3.95,2.05-6.2,2.62s-4.56.84-6.92.84c-3.43,0-6.62-.51-9.58-1.52s-5.48-2.49-7.59-4.43c-2.11-1.94-3.77-4.3-4.98-7.09-1.21-2.78-1.81-5.95-1.81-9.49s.56-6.54,1.69-9.32c1.12-2.78,2.7-5.16,4.73-7.13,2.02-1.97,4.46-3.49,7.3-4.56s5.95-1.6,9.32-1.6c3.54,0,6.71.55,9.49,1.65,2.78,1.1,5.15,2.66,7.09,4.68,1.94,2.02,3.43,4.47,4.47,7.34,1.04,2.87,1.62,6.05,1.73,9.53v1.52h-32.66ZM511.9,230.77c-2.64,0-4.92.73-6.83,2.19-1.91,1.46-3.09,3.46-3.54,5.99h20.17c-.45-2.53-1.56-4.53-3.33-5.99-1.77-1.46-3.92-2.19-6.46-2.19Z"/>
  </g>
  <g>
    <path class="cls-1" d="M563.36,182.45c0,3.49-.67,6.62-2.03,9.41-1.35,2.79-3.16,5.15-5.44,7.09-2.28,1.94-4.92,3.43-7.93,4.47-3.01,1.04-6.2,1.56-9.58,1.56s-6.5-.51-9.53-1.52c-3.04-1.01-5.71-2.49-8.02-4.43-2.31-1.94-4.14-4.3-5.48-7.09-1.35-2.78-2.03-5.92-2.03-9.41s.68-6.71,2.03-9.49,3.16-5.16,5.44-7.13c2.28-1.97,4.92-3.47,7.93-4.51,3.01-1.04,6.2-1.56,9.58-1.56s6.57.51,9.58,1.52c3.01,1.01,5.67,2.49,7.97,4.43,2.31,1.94,4.13,4.32,5.48,7.13,1.35,2.81,2.03,5.99,2.03,9.53ZM549.44,180c-.51-2.53-1.73-4.63-3.67-6.29-1.94-1.66-4.4-2.49-7.38-2.49-1.74,0-3.31.3-4.68.89-1.38.59-2.55,1.41-3.5,2.45-.96,1.04-1.7,2.24-2.24,3.59-.53,1.35-.8,2.78-.8,4.3s.25,2.95.76,4.3,1.25,2.53,2.24,3.54,2.16,1.81,3.54,2.4c1.38.59,2.91.89,4.6.89,2.98,0,5.43-.79,7.34-2.36,1.91-1.58,3.15-3.6,3.71-6.08.17-.79.25-1.65.25-2.57s-.06-1.79-.17-2.57Z"/>
    <path class="cls-1" d="M596.82,172.19c-1.04-.2-2.07-.24-3.08-.13-1.8.06-3.33.48-4.6,1.27-1.26.79-2.31,1.8-3.12,3.04-.82,1.24-1.41,2.65-1.77,4.22-.37,1.58-.55,3.24-.55,4.98v18.06h-13.16v-42.44h13.16v6.5h.08c1.41-2.42,3.18-4.22,5.32-5.4s4.61-1.77,7.43-1.77h3.46v12.91c-1.07-.62-2.12-1.03-3.16-1.22Z"/>
    <path class="cls-1" d="M637.7,203.63v-5.23h-.09c-1.41,2.19-3.35,3.84-5.82,4.94-2.48,1.1-5.03,1.65-7.68,1.65-3.15,0-6.03-.61-8.65-1.81-2.61-1.21-4.87-2.84-6.75-4.89-1.89-2.05-3.35-4.46-4.39-7.21-1.04-2.76-1.56-5.65-1.56-8.69s.51-5.92,1.52-8.65c1.01-2.73,2.45-5.12,4.3-7.17,1.86-2.05,4.09-3.68,6.71-4.89,2.62-1.21,5.5-1.81,8.65-1.81,2.59,0,5.12.51,7.59,1.52,2.48,1.01,4.53,2.53,6.16,4.56v-4.73h13.16v42.44h-13.16ZM627.15,171.22c-1.69,0-3.21.31-4.56.93-1.35.62-2.49,1.43-3.42,2.45-.93,1.01-1.65,2.19-2.15,3.54-.51,1.35-.76,2.76-.76,4.22s.25,2.97.76,4.35c.51,1.38,1.22,2.57,2.15,3.59.93,1.01,2.07,1.81,3.42,2.4,1.35.59,2.87.89,4.56.89s3.3-.3,4.68-.89c1.38-.59,2.53-1.39,3.46-2.4.93-1.01,1.65-2.19,2.15-3.54s.76-2.81.76-4.39-.25-2.95-.76-4.3-1.24-2.53-2.19-3.54c-.96-1.01-2.11-1.81-3.46-2.4-1.35-.59-2.9-.89-4.64-.89Z"/>
    <path class="cls-1" d="M675.92,145.32c0,2.08-.75,3.87-2.24,5.36-1.49,1.49-3.28,2.24-5.36,2.24s-3.95-.73-5.44-2.19c-1.49-1.46-2.24-3.26-2.24-5.4s.73-3.87,2.19-5.36c1.46-1.49,3.26-2.24,5.4-2.24s3.88.73,5.4,2.19c1.52,1.46,2.28,3.26,2.28,5.4ZM661.66,203.63v-42.44h13.08v42.44h-13.08Z"/>
    <path class="cls-1" d="M700.05,172.15v31.47h-12.99v-31.47h-4.89v-10.97h4.81v-13.16h12.99v13.16h8.44v10.97h-8.35Z"/>
    <path class="cls-1" d="M728.15,145.32c0,2.08-.75,3.87-2.24,5.36-1.49,1.49-3.28,2.24-5.36,2.24s-3.95-.73-5.44-2.19c-1.49-1.46-2.24-3.26-2.24-5.4s.73-3.87,2.19-5.36c1.46-1.49,3.26-2.24,5.4-2.24s3.88.73,5.4,2.19c1.52,1.46,2.28,3.26,2.28,5.4ZM713.89,203.63v-42.44h13.08v42.44h-13.08Z"/>
    <path class="cls-1" d="M770.51,189.62c0,2.65-.53,4.92-1.6,6.84s-2.49,3.5-4.26,4.77c-1.77,1.26-3.8,2.21-6.08,2.83-2.28.62-4.6.93-6.96.93-3.15,0-6.15-.52-8.99-1.56-2.84-1.04-5.42-2.54-7.72-4.51l5.23-8.86c1.41,1.35,3.19,2.55,5.36,3.59,2.16,1.04,4.26,1.56,6.29,1.56.63,0,1.28-.1,1.97-.3.68-.2,1.31-.48,1.88-.84.57-.36,1.03-.81,1.37-1.35.34-.53.51-1.17.51-1.9,0-.84-.24-1.53-.72-2.07-.48-.53-1.13-.97-1.95-1.31-.82-.34-1.74-.63-2.75-.89-1.02-.25-2.06-.52-3.14-.8-.45-.11-.89-.25-1.31-.42-.43-.17-.86-.34-1.31-.51-1.02-.39-2.02-.86-3.01-1.39-.99-.53-1.87-1.22-2.63-2.07s-1.37-1.84-1.82-3c-.45-1.15-.68-2.54-.68-4.18,0-2.48.49-4.61,1.48-6.41.98-1.8,2.29-3.29,3.92-4.47s3.49-2.05,5.57-2.62c2.08-.56,4.22-.84,6.41-.84,2.36,0,4.7.3,7,.89,2.31.59,4.47,1.48,6.5,2.66l-4.81,8.27c-1.13-.79-2.4-1.43-3.84-1.94-1.43-.51-2.83-.76-4.18-.76-.51,0-1.07.07-1.69.21-.62.14-1.18.37-1.69.67-.5.31-.94.67-1.31,1.1-.37.42-.55.94-.55,1.56,0,.73.24,1.35.73,1.86.48.51,1.07.91,1.75,1.22.68.31,1.41.55,2.18.72.77.17,1.44.34,2.01.51,1.68.45,3.27.96,4.78,1.52,1.51.56,2.85,1.32,4.02,2.28,1.23.96,2.21,2.17,2.93,3.63.73,1.46,1.09,3.26,1.09,5.4Z"/>
  </g>
  <g>
    <path class="cls-1" d="M562.53,241.05c0,1.38-.09,2.68-.25,3.91-.17,1.23-.69,2.43-1.55,3.6-.82,1.15-1.84,2.01-3.08,2.57-1.24.56-2.56.84-3.96.84-1.15,0-2.24-.17-3.27-.5-1.03-.33-1.94-.82-2.72-1.48-.78-.65-1.41-1.44-1.89-2.38s-.77-2.01-.84-3.24h1.76c.05.92.27,1.75.65,2.49.38.74.88,1.37,1.51,1.88.62.51,1.33.91,2.14,1.19s1.65.42,2.54.42c1.12,0,2.17-.21,3.17-.61s1.82-1.09,2.48-2.03c.69-1.02,1.12-2.1,1.3-3.22s.27-2.29.27-3.49v-2.19h-.08c-.79,1.07-1.8,1.92-3.02,2.53-1.23.61-2.51.92-3.86.92-1.28,0-2.44-.25-3.5-.75s-1.96-1.18-2.72-2.03c-.75-.86-1.33-1.85-1.74-2.97-.41-1.13-.61-2.3-.61-3.53s.22-2.47.65-3.59c.43-1.11,1.04-2.08,1.82-2.91.78-.83,1.7-1.49,2.77-1.98,1.07-.49,2.26-.73,3.56-.73,1.45,0,2.72.29,3.81.88,1.08.59,2.03,1.44,2.85,2.57h.12l-.04-3.07h1.76v16.88ZM553.82,225.41c-1.02,0-1.95.21-2.79.63-.84.42-1.56.99-2.15,1.69s-1.06,1.5-1.39,2.4-.5,1.83-.5,2.8c0,1.02.16,2,.48,2.93s.78,1.76,1.39,2.47c.61.72,1.34,1.29,2.19,1.71.85.42,1.81.63,2.88.63s2.11-.21,2.98-.63c.86-.42,1.59-1,2.17-1.73.59-.73,1.03-1.57,1.34-2.53.3-.96.46-1.98.46-3.05s-.16-1.98-.5-2.88c-.33-.9-.81-1.67-1.43-2.32s-1.37-1.17-2.23-1.55-1.83-.58-2.9-.58Z"/>
    <path class="cls-1" d="M570.2,226.48h.08c.36-.82.85-1.47,1.48-1.96.63-.49,1.41-.73,2.36-.73.36,0,.68.04.98.12.29.08.59.18.9.31l-.92,1.53c-.41-.23-.82-.34-1.23-.34-.97,0-1.71.26-2.21.79s-.86,1.17-1.07,1.94-.33,1.58-.34,2.43c-.01.86-.02,1.62-.02,2.28v9.05h-1.76v-17.72h1.76v2.3Z"/>
    <path class="cls-1" d="M594.94,241.9h-1.73v-3.18h-.08c-.33.56-.75,1.07-1.25,1.51-.5.45-1.05.83-1.65,1.13-.6.31-1.23.54-1.88.69-.65.15-1.31.23-1.98.23-1.33,0-2.54-.24-3.62-.73-1.09-.49-2.01-1.15-2.76-2-.76-.84-1.34-1.83-1.75-2.97-.41-1.14-.61-2.36-.61-3.66s.21-2.51.61-3.63c.41-1.11.98-2.08,1.73-2.89s1.65-1.46,2.72-1.92c1.07-.46,2.27-.69,3.6-.69s2.68.29,3.89.88c1.22.59,2.19,1.44,2.93,2.57h.08v-3.07h1.73v17.72ZM586.23,225.41c-1.02,0-1.96.21-2.8.63-.84.42-1.57.99-2.17,1.69-.6.7-1.07,1.5-1.4,2.4s-.5,1.83-.5,2.8c0,1.02.16,2,.48,2.93.32.93.79,1.76,1.4,2.47.61.72,1.35,1.29,2.21,1.71.86.42,1.82.63,2.9.63s2.12-.21,2.99-.63c.87-.42,1.6-1,2.19-1.73.59-.73,1.04-1.57,1.34-2.53.31-.96.46-1.98.46-3.05s-.17-1.98-.5-2.88c-.33-.9-.81-1.67-1.44-2.32s-1.38-1.17-2.24-1.55-1.84-.58-2.91-.58Z"/>
    <path class="cls-1" d="M602.34,227.36h.04c.33-.56.75-1.07,1.25-1.52.5-.45,1.05-.82,1.65-1.13s1.23-.54,1.9-.69c.67-.15,1.32-.23,1.96-.23,1.35,0,2.57.25,3.64.75s1.99,1.17,2.74,2.01c.76.84,1.34,1.84,1.75,2.97.41,1.14.61,2.36.61,3.66s-.21,2.51-.61,3.6c-.41,1.1-.98,2.06-1.72,2.88-.74.82-1.65,1.46-2.72,1.92s-2.27.69-3.6.69-2.67-.29-3.88-.86-2.19-1.44-2.93-2.59h-.08v13.42h-1.76v-28.07h1.76v3.18ZM609.17,225.41c-1.12,0-2.11.22-2.98.65-.87.44-1.59,1.02-2.18,1.76-.58.74-1.03,1.59-1.33,2.55-.31.96-.46,1.98-.46,3.05s.16,1.98.5,2.88c.33.9.8,1.66,1.41,2.3.61.64,1.35,1.14,2.21,1.52.86.37,1.83.56,2.9.56s1.98-.21,2.82-.61,1.56-.95,2.16-1.63c.6-.68,1.06-1.46,1.39-2.36s.5-1.84.5-2.84-.16-2-.48-2.93-.78-1.76-1.37-2.49-1.33-1.31-2.19-1.75c-.86-.43-1.83-.65-2.9-.65Z"/>
    <path class="cls-1" d="M623.82,210.26v16.68h.08c.51-.97,1.22-1.74,2.14-2.3.92-.56,1.95-.84,3.1-.84s2.09.17,2.83.52c.74.35,1.33.84,1.78,1.48.45.64.76,1.41.94,2.32s.27,1.94.27,3.09v10.7h-1.76v-10.7c0-.79-.04-1.54-.11-2.24-.08-.7-.26-1.32-.55-1.84-.29-.52-.72-.94-1.27-1.25s-1.32-.46-2.28-.46c-1.09,0-1.98.24-2.66.71s-1.2,1.08-1.56,1.82-.6,1.57-.72,2.49c-.13.92-.19,1.83-.19,2.72v8.75h-1.76v-31.64h1.76Z"/>
    <path class="cls-1" d="M642.38,216.7c.43,0,.81.15,1.11.46.31.31.46.68.46,1.11s-.15.81-.46,1.11c-.31.31-.68.46-1.11.46s-.8-.15-1.11-.46-.46-.68-.46-1.11.15-.8.46-1.11.68-.46,1.11-.46ZM643.26,241.9h-1.76v-17.72h1.76v17.72Z"/>
    <path class="cls-1" d="M663.44,228.28c-.84-.92-1.78-1.63-2.8-2.13-1.02-.5-2.17-.75-3.45-.75-1.05,0-2.02.21-2.91.61-.9.41-1.67.96-2.32,1.67-.65.7-1.16,1.51-1.53,2.44-.37.92-.56,1.88-.56,2.88s.18,1.96.56,2.9c.37.93.88,1.75,1.53,2.45.65.7,1.42,1.27,2.3,1.69.88.42,1.85.63,2.9.63,1.28,0,2.48-.29,3.6-.86s2.1-1.35,2.92-2.32v2.34c-.9.79-1.89,1.4-2.99,1.82-1.1.42-2.25.63-3.45.63-1.3,0-2.51-.24-3.62-.73-1.11-.49-2.07-1.14-2.88-1.98-.81-.83-1.45-1.81-1.92-2.93s-.71-2.34-.71-3.64.24-2.48.71-3.61c.47-1.12,1.12-2.1,1.94-2.93.82-.83,1.79-1.48,2.9-1.96,1.11-.47,2.32-.71,3.63-.71,1.15,0,2.24.18,3.28.54,1.04.36,2,.91,2.9,1.65v2.3Z"/>
    <path class="cls-1" d="M693.81,238.71h-.08c-.33.56-.75,1.07-1.24,1.51-.5.45-1.05.83-1.65,1.13-.6.31-1.22.54-1.87.69-.65.15-1.31.23-1.97.23-1.33,0-2.53-.24-3.62-.73-1.08-.49-2-1.15-2.75-2-.75-.84-1.33-1.83-1.74-2.97-.41-1.14-.61-2.36-.61-3.66s.2-2.51.61-3.63c.41-1.11.98-2.08,1.72-2.89.74-.82,1.65-1.46,2.72-1.92,1.07-.46,2.27-.69,3.6-.69s2.67.29,3.88.88c1.21.59,2.19,1.44,2.93,2.57h.12l-.04-16.99h1.76v31.64h-1.76v-3.18ZM686.99,240.67c1.12,0,2.11-.21,2.98-.63.86-.42,1.59-1,2.17-1.73.59-.73,1.03-1.57,1.33-2.53s.46-1.98.46-3.05-.16-1.98-.5-2.88c-.33-.9-.81-1.67-1.43-2.32s-1.37-1.17-2.23-1.55-1.83-.58-2.9-.58-1.95.21-2.79.63c-.84.42-1.56.99-2.15,1.69s-1.06,1.5-1.39,2.4c-.33.89-.5,1.83-.5,2.8,0,1.02.16,2,.48,2.93s.78,1.76,1.39,2.47c.61.72,1.34,1.29,2.19,1.71.85.42,1.81.63,2.88.63Z"/>
    <path class="cls-1" d="M701.52,233.19c-.03,1.13.13,2.15.48,3.07.35.92.84,1.71,1.48,2.36.64.65,1.4,1.16,2.28,1.51.88.36,1.83.54,2.86.54,1.38,0,2.61-.37,3.68-1.11,1.07-.74,1.93-1.71,2.57-2.91l1.46.84c-.82,1.53-1.9,2.72-3.26,3.55-1.35.83-2.91,1.25-4.68,1.25-1.3,0-2.49-.25-3.55-.75s-1.97-1.17-2.73-2.01c-.76-.84-1.34-1.83-1.75-2.95-.41-1.13-.61-2.31-.61-3.57s.21-2.4.61-3.51c.41-1.11.99-2.09,1.75-2.93.75-.84,1.65-1.51,2.7-2.01s2.22-.75,3.53-.75,2.56.25,3.6.75,1.94,1.18,2.67,2.03c.73.86,1.29,1.85,1.67,2.99.38,1.14.58,2.35.58,3.62h-15.34ZM715.1,231.58c-.1-.82-.34-1.6-.71-2.34s-.85-1.4-1.45-1.97-1.28-1.03-2.04-1.36-1.6-.5-2.52-.5-1.74.17-2.54.5-1.51.78-2.12,1.34-1.11,1.22-1.51,1.96c-.4.74-.63,1.53-.71,2.38h13.58Z"/>
    <path class="cls-1" d="M728.52,227.4c-.28-.61-.7-1.1-1.25-1.46-.55-.36-1.17-.54-1.86-.54-.38,0-.76.07-1.11.21s-.68.34-.96.59c-.28.25-.51.55-.69.88-.18.33-.27.69-.27,1.07,0,.72.21,1.27.63,1.67.42.4.95.74,1.58,1.02.64.28,1.33.55,2.08.81.75.26,1.44.58,2.08.98.64.4,1.16.91,1.59,1.55.42.64.63,1.5.63,2.57,0,.82-.15,1.57-.44,2.24-.29.68-.7,1.26-1.23,1.75s-1.13.86-1.82,1.13-1.43.4-2.22.4c-1.48,0-2.78-.42-3.89-1.25-1.11-.83-1.85-1.97-2.21-3.43l1.69-.54c.33,1.07.85,1.94,1.57,2.61.71.67,1.65,1,2.83,1s2.06-.38,2.83-1.15c.76-.77,1.14-1.71,1.14-2.84,0-.54-.1-1-.29-1.38-.19-.38-.45-.7-.76-.96-.32-.26-.69-.47-1.11-.65-.42-.18-.85-.35-1.28-.5-.61-.23-1.22-.47-1.83-.73-.61-.25-1.17-.57-1.66-.94-.5-.37-.9-.82-1.2-1.34-.31-.52-.46-1.16-.46-1.9,0-.67.14-1.27.41-1.82.28-.55.63-1.02,1.07-1.42s.96-.7,1.54-.92c.59-.22,1.2-.33,1.84-.33.89,0,1.78.27,2.65.8.87.54,1.5,1.22,1.88,2.03l-1.5.77Z"/>
    <path class="cls-1" d="M736.96,216.7c.43,0,.81.15,1.11.46.31.31.46.68.46,1.11s-.15.81-.46,1.11c-.31.31-.68.46-1.11.46s-.8-.15-1.11-.46-.46-.68-.46-1.11.15-.8.46-1.11.68-.46,1.11-.46ZM737.84,241.9h-1.76v-17.72h1.76v17.72Z"/>
    <path class="cls-1" d="M760.24,241.05c0,1.38-.09,2.68-.25,3.91-.17,1.23-.69,2.43-1.55,3.6-.82,1.15-1.84,2.01-3.08,2.57-1.24.56-2.56.84-3.96.84-1.15,0-2.24-.17-3.27-.5-1.03-.33-1.94-.82-2.72-1.48-.78-.65-1.41-1.44-1.89-2.38s-.77-2.01-.84-3.24h1.76c.05.92.27,1.75.65,2.49.38.74.88,1.37,1.51,1.88.62.51,1.33.91,2.14,1.19s1.65.42,2.54.42c1.12,0,2.17-.21,3.17-.61s1.82-1.09,2.48-2.03c.69-1.02,1.12-2.1,1.3-3.22s.27-2.29.27-3.49v-2.19h-.08c-.79,1.07-1.8,1.92-3.02,2.53-1.23.61-2.51.92-3.86.92-1.28,0-2.44-.25-3.5-.75s-1.96-1.18-2.72-2.03c-.75-.86-1.33-1.85-1.74-2.97-.41-1.13-.61-2.3-.61-3.53s.22-2.47.65-3.59c.43-1.11,1.04-2.08,1.82-2.91.78-.83,1.7-1.49,2.77-1.98,1.07-.49,2.26-.73,3.56-.73,1.45,0,2.72.29,3.81.88,1.08.59,2.03,1.44,2.85,2.57h.12l-.04-3.07h1.76v16.88ZM751.54,225.41c-1.02,0-1.95.21-2.79.63-.84.42-1.56.99-2.15,1.69s-1.06,1.5-1.39,2.4-.5,1.83-.5,2.8c0,1.02.16,2,.48,2.93s.78,1.76,1.39,2.47c.61.72,1.34,1.29,2.19,1.71.85.42,1.81.63,2.88.63s2.11-.21,2.98-.63c.86-.42,1.59-1,2.17-1.73.59-.73,1.03-1.57,1.34-2.53.3-.96.46-1.98.46-3.05s-.16-1.98-.5-2.88c-.33-.9-.81-1.67-1.43-2.32s-1.37-1.17-2.23-1.55-1.83-.58-2.9-.58Z"/>
    <path class="cls-1" d="M767.91,226.94h.04c.51-.97,1.23-1.74,2.15-2.3.92-.56,1.96-.84,3.11-.84s2.1.17,2.84.52c.74.35,1.34.84,1.78,1.48.45.64.76,1.41.94,2.32.18.91.27,1.94.27,3.09v10.7h-1.76v-10.7c0-.79-.04-1.54-.11-2.24-.08-.7-.26-1.32-.55-1.84-.29-.52-.72-.94-1.27-1.25s-1.32-.46-2.28-.46c-1.09,0-1.98.24-2.66.71s-1.2,1.08-1.56,1.82-.6,1.57-.72,2.49c-.13.92-.19,1.83-.19,2.72v8.75h-1.76v-17.72h1.76v2.76Z"/>
    <path class="cls-1" d="M784.98,233.19c-.03,1.13.13,2.15.48,3.07.35.92.84,1.71,1.48,2.36.64.65,1.4,1.16,2.28,1.51.88.36,1.83.54,2.86.54,1.38,0,2.61-.37,3.68-1.11,1.07-.74,1.93-1.71,2.57-2.91l1.46.84c-.82,1.53-1.9,2.72-3.26,3.55-1.35.83-2.91,1.25-4.68,1.25-1.3,0-2.49-.25-3.55-.75s-1.97-1.17-2.73-2.01c-.76-.84-1.34-1.83-1.75-2.95-.41-1.13-.61-2.31-.61-3.57s.21-2.4.61-3.51c.41-1.11.99-2.09,1.75-2.93.75-.84,1.65-1.51,2.7-2.01s2.22-.75,3.53-.75,2.56.25,3.6.75,1.94,1.18,2.67,2.03c.73.86,1.29,1.85,1.67,2.99.38,1.14.58,2.35.58,3.62h-15.34ZM798.56,231.58c-.1-.82-.34-1.6-.71-2.34s-.85-1.4-1.45-1.97-1.28-1.03-2.04-1.36-1.6-.5-2.52-.5-1.74.17-2.54.5-1.51.78-2.12,1.34-1.11,1.22-1.51,1.96c-.4.74-.63,1.53-.71,2.38h13.58Z"/>
    <path class="cls-1" d="M806.27,226.48h.08c.36-.82.85-1.47,1.48-1.96.63-.49,1.41-.73,2.36-.73.36,0,.68.04.98.12.29.08.59.18.9.31l-.92,1.53c-.41-.23-.82-.34-1.23-.34-.97,0-1.71.26-2.21.79s-.86,1.17-1.07,1.94-.33,1.58-.34,2.43c-.01.86-.02,1.62-.02,2.28v9.05h-1.76v-17.72h1.76v2.3Z"/>
  </g>
</svg>